#N canvas 82 103 450 300 10;
#X obj 53 9 inlet;
#X text 103 8 Bang;
#X obj 82 202 outlet~;
#X text 141 203 Send signal;
#X obj 172 106 osc~ 440;
#X obj 102 137 *~;
#X obj 77 82 vline~;
#X msg 73 44 0.25 1 \, 0 20 30;
#X text 250 15 Enable a creation argument;
#X obj 220 62 \$1;
#X obj 221 31 loadbang;
#X connect 0 0 7 0;
#X connect 4 0 5 1;
#X connect 5 0 2 0;
#X connect 6 0 5 0;
#X connect 7 0 6 0;
#X connect 9 0 4 0;
#X connect 10 0 9 0;
