#N canvas 579 82 693 519 10;
#X obj 83 262 bng 15 250 50 0 empty empty empty 17 7 0 10 -262144 -1
-1;
#X floatatom 29 237 5 0 0 0 - - -;
#X obj 174 226 + 1;
#X floatatom 123 251 5 0 0 0 - - -;
#X floatatom 97 360 5 0 0 0 - - -;
#X obj 110 221 f;
#X obj 125 292 % 4;
#X text 154 292 Subdivisions (clicks per beat);
#X obj 126 329 sel 0;
#X obj 150 413 click 880;
#X obj 143 452 dac~;
#X obj 231 412 click 440;
#X obj 152 372 bng 15 250 50 0 empty empty empty 17 7 0 10 -262144
-1 -1;
#X obj 231 367 bng 15 250 50 0 empty empty empty 17 7 0 10 -262144
-1 -1;
#X obj 128 84 ratelogic;
#X obj 313 119 s bpm;
#X floatatom 310 78 5 0 0 0 - - -;
#X obj 390 233 hradio 15 1 0 8 empty empty empty 0 -8 0 10 -262144
-1 -1 0;
#X floatatom 395 268 5 0 0 0 - - -;
#X obj 393 298 s subdivisions;
#X obj 133 24 r bpm;
#X obj 165 53 r subdivisions;
#X obj 447 465 tgl 15 0 empty empty empty 17 7 0 10 -262144 -1 -1 0
1;
#X obj 438 496 s onOff;
#X obj 0 57 r onOff;
#X obj 3 92 t f f;
#X obj 59 139 tgl 15 0 empty empty empty 17 7 0 10 -262144 -1 -1 0
1;
#X obj -8 143 sel 0;
#X obj 90 158 metro 250;
#X msg 34 177 0;
#X obj 376 21 loadbang;
#X msg 393 48 60;
#X obj 427 151 loadbang;
#X msg 471 187 0;
#X obj 512 352 loadbang;
#X obj 530 384 t b;
#X obj 41 425 send metro-bang;
#X obj 249 11 receive bpm-shift;
#X obj 391 413 bng 15 250 50 0 empty empty empty 17 7 0 10 -262144
-1 -1;
#X text -17 19 When toggle off reset the counter;
#X obj 390 373 receive switch;
#X connect 2 0 5 1;
#X connect 3 0 6 0;
#X connect 5 0 2 0;
#X connect 5 0 3 0;
#X connect 6 0 4 0;
#X connect 6 0 8 0;
#X connect 8 0 12 0;
#X connect 8 1 13 0;
#X connect 9 0 10 0;
#X connect 9 0 10 1;
#X connect 11 0 10 0;
#X connect 11 0 10 1;
#X connect 12 0 9 0;
#X connect 13 0 11 0;
#X connect 14 0 28 1;
#X connect 14 1 6 1;
#X connect 16 0 15 0;
#X connect 17 0 18 0;
#X connect 18 0 19 0;
#X connect 20 0 14 0;
#X connect 21 0 14 1;
#X connect 22 0 23 0;
#X connect 24 0 25 0;
#X connect 25 0 27 0;
#X connect 25 1 26 0;
#X connect 26 0 28 0;
#X connect 27 0 29 0;
#X connect 28 0 0 0;
#X connect 28 0 1 0;
#X connect 28 0 5 0;
#X connect 28 0 36 0;
#X connect 29 0 5 1;
#X connect 30 0 31 0;
#X connect 31 0 15 0;
#X connect 31 0 16 0;
#X connect 32 0 33 0;
#X connect 33 0 18 0;
#X connect 34 0 35 0;
#X connect 37 0 16 0;
#X connect 38 0 22 0;
#X connect 40 0 38 0;
