#N canvas 63 194 429 464 10;
#X obj 94 13 inlet;
#X text 140 14 BPM;
#X msg 95 77 60000;
#X obj 94 46 t b f;
#X obj 98 106 /;
#X floatatom 97 140 5 0 0 0 - - -;
#X text 137 139 Rate in M.S.;
#X obj 97 169 t b f;
#X obj 106 220 f;
#X text 145 169 Store the rate in M. S.;
#X obj 230 19 inlet;
#X text 283 15 Subdivisions;
#X obj 228 48 + 1;
#X text 266 44 Offset by one \; Range 1 - 8;
#X obj 243 83 t f f;
#X obj 233 115 t b f;
#X obj 109 248 /;
#X floatatom 114 278 5 0 0 0 - - -;
#X obj 278 273 outlet;
#X text 326 272 Modulo;
#X obj 71 361 outlet;
#X text 130 362 Rate in M.S./ Subdivisions;
#X connect 0 0 3 0;
#X connect 2 0 4 0;
#X connect 3 0 2 0;
#X connect 3 1 4 1;
#X connect 4 0 5 0;
#X connect 5 0 7 0;
#X connect 7 0 8 0;
#X connect 7 1 8 1;
#X connect 8 0 16 0;
#X connect 10 0 12 0;
#X connect 12 0 14 0;
#X connect 14 0 15 0;
#X connect 14 1 18 0;
#X connect 15 0 8 0;
#X connect 15 1 16 1;
#X connect 16 0 17 0;
#X connect 17 0 20 0;
